<svg width="80" height="80" viewBox="0 0 80 80" fill="none" xmlns="http://www.w3.org/2000/svg">
    <path
        d="M61.6666 60H28.3334C23.7316 60 20 56.2684 20 51.6666V18.3334C20 13.7316 23.7316 10 28.3334 10H61.6666C66.2684 10 70 13.7316 70 18.3334V51.6666C70 56.2684 66.2684 60 61.6666 60ZM35 50H58.3334V30.8334C58.3334 25.77 54.23 21.6666 49.1666 21.6666H30V45C30 47.7616 32.2384 50 35 50Z"
        fill="#64B5F6" />
    <path
        d="M51.6666 70H18.3334C13.7316 70 10 66.2684 10 61.6666V28.3334C10 23.7316 13.7316 20 18.3334 20H51.6666C56.2684 20 60 23.7316 60 28.3334V61.6666C60 66.2684 56.2684 70 51.6666 70ZM29.1666 60H50V35C50 32.2384 47.7616 30 45 30H25C22.2384 30 20 32.2384 20 35V50.8334C20 55.8966 24.1034 60 29.1666 60Z"
        fill="#FB8C00" />
    <path
        d="M60.0002 43.333V44.9996C60.0002 47.7614 57.7619 49.9996 55.0002 49.9996H38.3335V59.9996H61.6669C66.2502 59.9996 70.0002 56.2496 70.0002 51.6664V43.333H60.0002Z"
        fill="#64B5F6" />
</svg>